<svg width="33" height="33" viewBox="0 0 33 33" fill="none" xmlns="http://www.w3.org/2000/svg">
<path d="M6.37509 21.1757C6.37509 21.1757 4.14109 22.9453 3.99924 27.8076C3.99593 27.9394 4.01923 28.0706 4.06774 28.1932C4.11624 28.3158 4.18896 28.4274 4.28156 28.5213C4.37415 28.6152 4.48472 28.6894 4.60665 28.7397C4.72859 28.7899 4.85939 28.815 4.99125 28.8135C9.69556 28.7258 11.6231 26.4239 11.6231 26.4239C12.2954 25.7156 12.6702 24.7763 12.6702 23.7998C12.6702 22.8233 12.2954 21.884 11.6231 21.1757C10.174 19.7264 8.02581 19.7969 6.37509 21.1757Z" fill="url(#paint0_linear_4_77)"/>
<path d="M16.7603 22.9073C17.4253 23.7835 17.8317 24.8284 17.9334 25.9237C18.0332 27.6367 17.8819 29.3551 17.4843 31.0243C17.4527 31.1626 17.4615 31.307 17.5097 31.4404C17.5579 31.5738 17.6433 31.6906 17.756 31.7768C17.8686 31.863 18.0036 31.915 18.145 31.9267C18.2864 31.9383 18.4281 31.9091 18.5533 31.8425C22.5204 29.7522 25.7962 25.7127 23.7062 20.4432C21.6051 21.7754 19.2312 22.6175 16.7603 22.9073Z" fill="url(#paint1_linear_4_77)"/>
<path d="M6.87328 14.8628C7.9698 14.9648 9.01576 15.3722 9.89236 16.0388C10.1781 13.5663 11.0204 11.1907 12.356 9.0905C7.0852 6.99835 3.04553 10.276 0.953076 14.2434C0.886955 14.3676 0.858011 14.5082 0.869707 14.6484C0.881403 14.7886 0.933242 14.9224 1.01902 15.034C1.10447 15.1478 1.22095 15.2346 1.35448 15.2839C1.488 15.3332 1.63292 15.3429 1.77184 15.3119C3.44139 14.9146 5.16 14.7633 6.87328 14.8628Z" fill="url(#paint2_linear_4_77)"/>
<path d="M31.1531 2.75795C31.11 2.47891 30.979 2.22086 30.7794 2.02121C30.5797 1.82156 30.3216 1.69069 30.0426 1.64755C28.4196 1.40324 26.7697 1.39645 25.1448 1.62739C25.3374 3.1588 26.0346 4.58241 27.1264 5.67344C28.2181 6.76448 29.6422 7.46077 31.1738 7.65237C31.4042 6.02852 31.3972 4.3798 31.1531 2.75795Z" fill="url(#paint3_linear_4_77)"/>
<path d="M23.7773 1.88098C21.3379 2.44188 19.0887 3.63361 17.2546 5.33691C11.235 10.9106 11.2566 16.5614 11.2566 16.5614L16.239 21.5439C16.239 21.5439 21.8903 21.5656 27.4636 15.5462C29.1676 13.7113 30.3596 11.4609 30.9201 9.02038C29.1124 8.77576 27.4348 7.94496 26.1446 6.65537C24.8544 5.36578 24.0228 3.68859 23.7773 1.88098V1.88098ZM21.482 14.2224C20.9068 14.2224 20.3446 14.0519 19.8664 13.7323C19.3881 13.4128 19.0154 12.9586 18.7953 12.4272C18.5752 11.8958 18.5176 11.3111 18.6298 10.7469C18.742 10.1828 19.019 9.66464 19.4257 9.25793C19.8324 8.85123 20.3506 8.57425 20.9147 8.46204C21.4788 8.34983 22.0635 8.40742 22.5949 8.62753C23.1263 8.84764 23.5805 9.22038 23.9 9.69862C24.2196 10.1769 24.3901 10.7391 24.3901 11.3143C24.3901 11.6962 24.3149 12.0744 24.1688 12.4272C24.0226 12.78 23.8084 13.1006 23.5384 13.3706C23.2683 13.6407 22.9477 13.8549 22.5949 14.001C22.2421 14.1472 21.8639 14.2224 21.482 14.2224V14.2224Z" fill="url(#paint4_linear_4_77)"/>
<defs>
<linearGradient id="paint0_linear_4_77" x1="4.67637" y1="20.8217" x2="11.5546" y2="27.9764" gradientUnits="userSpaceOnUse">
<stop stop-color="#024383"/>
<stop offset="0.765625" stop-color="#0967C4"/>
</linearGradient>
<linearGradient id="paint1_linear_4_77" x1="17.3538" y1="21.3765" x2="25.8518" y2="27.241" gradientUnits="userSpaceOnUse">
<stop stop-color="#024383"/>
<stop offset="0.765625" stop-color="#0967C4"/>
</linearGradient>
<linearGradient id="paint2_linear_4_77" x1="1.76473" y1="9.05667" x2="7.20363" y2="17.6366" gradientUnits="userSpaceOnUse">
<stop stop-color="#024383"/>
<stop offset="0.765625" stop-color="#0967C4"/>
</linearGradient>
<linearGradient id="paint3_linear_4_77" x1="25.6289" y1="1.96231" x2="30.5253" y2="7.07452" gradientUnits="userSpaceOnUse">
<stop stop-color="#024383"/>
<stop offset="0.765625" stop-color="#0967C4"/>
</linearGradient>
<linearGradient id="paint4_linear_4_77" x1="12.7928" y1="3.47859" x2="28.3388" y2="19.701" gradientUnits="userSpaceOnUse">
<stop stop-color="#024383"/>
<stop offset="0.765625" stop-color="#0967C4"/>
</linearGradient>
</defs>
</svg>
