<svg width="32" height="31" viewBox="0 0 32 31" fill="none" xmlns="http://www.w3.org/2000/svg">
<path d="M6.37509 20.1757C6.37509 20.1757 4.14109 21.9453 3.99924 26.8076C3.99593 26.9394 4.01923 27.0706 4.06774 27.1932C4.11624 27.3158 4.18896 27.4274 4.28156 27.5213C4.37415 27.6152 4.48472 27.6894 4.60665 27.7397C4.72859 27.7899 4.85939 27.815 4.99125 27.8135C9.69556 27.7258 11.6231 25.4239 11.6231 25.4239C12.2954 24.7156 12.6702 23.7763 12.6702 22.7998C12.6702 21.8233 12.2954 20.884 11.6231 20.1757C10.174 18.7264 8.02581 18.7969 6.37509 20.1757Z" fill="#024383"/>
<path d="M16.7603 21.9073C17.4253 22.7835 17.8317 23.8284 17.9334 24.9237C18.0332 26.6367 17.8819 28.3551 17.4843 30.0243C17.4527 30.1626 17.4615 30.307 17.5097 30.4404C17.5579 30.5738 17.6433 30.6906 17.756 30.7768C17.8686 30.863 18.0036 30.915 18.145 30.9267C18.2864 30.9383 18.4281 30.9091 18.5533 30.8425C22.5204 28.7522 25.7962 24.7127 23.7062 19.4432C21.6051 20.7754 19.2312 21.6175 16.7603 21.9073Z" fill="#024383"/>
<path d="M6.87328 13.8628C7.9698 13.9648 9.01576 14.3722 9.89236 15.0388C10.1781 12.5663 11.0204 10.1907 12.356 8.0905C7.0852 5.99835 3.04553 9.27598 0.953076 13.2434C0.886955 13.3676 0.858011 13.5082 0.869707 13.6484C0.881403 13.7886 0.933242 13.9224 1.01902 14.034C1.10447 14.1478 1.22095 14.2346 1.35448 14.2839C1.488 14.3332 1.63292 14.3429 1.77184 14.3119C3.44139 13.9146 5.16 13.7633 6.87328 13.8628Z" fill="#024383"/>
<path d="M31.1531 1.75795C31.11 1.47891 30.979 1.22086 30.7794 1.02121C30.5797 0.821561 30.3216 0.690686 30.0426 0.647552C28.4196 0.403238 26.7697 0.396447 25.1448 0.627391C25.3374 2.1588 26.0346 3.58241 27.1264 4.67344C28.2181 5.76448 29.6422 6.46077 31.1738 6.65237C31.4042 5.02852 31.3972 3.3798 31.1531 1.75795Z" fill="#024383"/>
<path d="M23.7773 0.880981C21.3379 1.44188 19.0887 2.63361 17.2546 4.33691C11.235 9.91055 11.2566 15.5614 11.2566 15.5614L16.239 20.5439C16.239 20.5439 21.8903 20.5656 27.4636 14.5462C29.1676 12.7113 30.3596 10.4609 30.9201 8.02038C29.1124 7.77576 27.4348 6.94496 26.1446 5.65537C24.8544 4.36578 24.0228 2.68859 23.7773 0.880981ZM21.482 13.2224C20.9068 13.2224 20.3446 13.0519 19.8664 12.7323C19.3881 12.4128 19.0154 11.9586 18.7953 11.4272C18.5752 10.8958 18.5176 10.3111 18.6298 9.74694C18.742 9.18282 19.019 8.66464 19.4257 8.25793C19.8324 7.85123 20.3506 7.57425 20.9147 7.46204C21.4788 7.34983 22.0635 7.40742 22.5949 7.62753C23.1263 7.84764 23.5805 8.22038 23.9 8.69862C24.2196 9.17686 24.3901 9.73912 24.3901 10.3143C24.3901 10.6962 24.3149 11.0744 24.1688 11.4272C24.0226 11.78 23.8084 12.1006 23.5384 12.3706C23.2683 12.6407 22.9477 12.8549 22.5949 13.001C22.2421 13.1472 21.8639 13.2224 21.482 13.2224Z" fill="#024383"/>
</svg>
