<svg width="512" height="512" viewBox="0 0 512 512" fill="none" xmlns="http://www.w3.org/2000/svg">
<g clip-path="url(#clip0_191_2)">
<path d="M364.831 288.663L230.503 369.244L-7.62939e-06 318.101L49.5196 94.9182L450.643 183.92L364.831 288.663Z" fill="#A5A9A6"/>
<path d="M344.98 152.698C339.235 152.698 334.581 148.043 334.581 142.298V126.352C334.581 116.413 326.494 108.327 316.555 108.327H248.612C238.672 108.327 230.586 116.413 230.586 126.352V142.298C230.586 148.043 225.931 152.698 220.186 152.698C214.442 152.698 209.787 148.043 209.787 142.298V126.352C209.787 104.945 227.204 87.5276 248.612 87.5276H316.555C337.963 87.5276 355.38 104.945 355.38 126.352V142.298C355.38 148.043 350.725 152.698 344.98 152.698Z" fill="#414141"/>
<path d="M282.583 108.327H248.612C238.672 108.327 230.586 116.413 230.586 126.352V142.298C230.586 148.043 225.931 152.698 220.186 152.698C214.442 152.698 209.787 148.043 209.787 142.298V126.352C209.787 104.945 227.204 87.5276 248.612 87.5276H282.583V108.327Z" fill="#585858"/>
<path d="M51.6494 173.498V389.807C51.6494 408.952 67.1696 424.472 86.3143 424.472H477.335C496.48 424.472 512 408.952 512 389.807V173.498C512 154.353 496.48 138.833 477.335 138.833H86.3143C67.1696 138.833 51.6494 154.353 51.6494 173.498Z" fill="#024383"/>
<path d="M51.6494 173.498V389.807C51.6494 408.952 67.1696 424.472 86.3143 424.472H282.583V138.833H86.3143C67.1696 138.833 51.6494 154.353 51.6494 173.498Z" fill="#0656A5"/>
</g>
<defs>
<clipPath id="clip0_191_2">
<rect width="512" height="512" fill="white"/>
</clipPath>
</defs>
</svg>
