<svg width="100" height="100" viewBox="0 0 100 100" fill="none" xmlns="http://www.w3.org/2000/svg">
<path fill-rule="evenodd" clip-rule="evenodd" d="M47.7146 6.84586C49.1292 6.05211 50.8708 6.05211 52.2833 6.84586C59.2729 10.7688 80.3062 22.5771 87.2979 26.5C88.7125 27.2917 89.5833 28.7584 89.5833 30.3459C89.5833 38.1917 89.5833 61.8063 89.5833 69.6521C89.5833 71.2396 88.7125 72.7063 87.2979 73.5C80.3083 77.4229 59.275 89.2313 52.2833 93.1542C50.8687 93.9479 49.1271 93.9479 47.7146 93.1542C40.725 89.2313 19.6917 77.4229 12.7 73.5C11.2875 72.7063 10.4167 71.2417 10.4167 69.6542C10.4167 61.8084 10.4167 38.1938 10.4167 30.3479C10.4167 28.7604 11.2875 27.2938 12.7021 26.5C19.6896 22.5771 40.7271 10.7688 47.7146 6.84586Z" fill="url(#paint0_linear_4_63)"/>
<path fill-rule="evenodd" clip-rule="evenodd" d="M47.7146 6.84586C49.1292 6.05211 50.8708 6.05211 52.2833 6.84586C59.2729 10.7688 80.3062 22.5771 87.2979 26.5C88.7125 27.2917 89.5833 28.7584 89.5833 30.3459C89.5833 38.1917 89.5833 61.8063 89.5833 69.6521C89.5833 71.2396 88.7125 72.7063 87.2979 73.5C80.3083 77.4229 59.275 89.2313 52.2833 93.1542C50.8687 93.9479 49.1271 93.9479 47.7146 93.1542C40.725 89.2313 19.6917 77.4229 12.7 73.5C11.2875 72.7063 10.4167 71.2417 10.4167 69.6542C10.4167 61.8084 10.4167 38.1938 10.4167 30.3479C10.4167 28.7604 11.2875 27.2938 12.7021 26.5C19.6896 22.5771 40.7271 10.7688 47.7146 6.84586Z" fill="url(#paint1_linear_4_63)"/>
<path fill-rule="evenodd" clip-rule="evenodd" d="M11.05 71.675C10.4958 70.9333 10.4167 70.2291 10.4167 69.2812C10.4167 61.4812 10.4167 38.0021 10.4167 30.2C10.4167 28.6208 11.2854 27.1625 12.6958 26.375C19.6604 22.475 40.6229 10.7354 47.5875 6.83331C48.9979 6.04373 50.9083 6.06039 52.3187 6.84998C59.2833 10.75 80.175 22.3896 87.1396 26.2896C87.7021 26.6062 88.1312 26.9875 88.5146 27.4896L11.05 71.675Z" fill="url(#paint2_linear_4_63)"/>
<path fill-rule="evenodd" clip-rule="evenodd" d="M50 20.8333C66.0979 20.8333 79.1667 33.9021 79.1667 50C79.1667 66.0979 66.0979 79.1666 50 79.1666C33.9021 79.1666 20.8333 66.0979 20.8333 50C20.8333 33.9021 33.9021 20.8333 50 20.8333ZM50 35.4166C58.0479 35.4166 64.5833 41.95 64.5833 50C64.5833 58.0479 58.0479 64.5833 50 64.5833C41.9521 64.5833 35.4167 58.0479 35.4167 50C35.4167 41.95 41.95 35.4166 50 35.4166Z" fill="white"/>
<path fill-rule="evenodd" clip-rule="evenodd" d="M88.5104 27.5104C89.5854 28.5167 89.5646 30.0334 89.5646 31.2271C89.5646 39.1334 89.4979 61.6209 89.5833 69.5271C89.5917 70.3521 89.3187 71.2209 88.9104 71.875L49.1521 50L88.5104 27.5104Z" fill="url(#paint3_linear_4_63)"/>
<path fill-rule="evenodd" clip-rule="evenodd" d="M70.8333 41.6667H72.9166V58.3334H70.8333V41.6667ZM77.0833 41.6667H79.1667V58.3334H77.0833V41.6667Z" fill="white"/>
<path fill-rule="evenodd" clip-rule="evenodd" d="M66.6667 52.0833H83.3333V54.1666H66.6667V52.0833ZM66.6667 45.8333H83.3333V47.9166H66.6667V45.8333Z" fill="white"/>
<defs>
<linearGradient id="paint0_linear_4_63" x1="16.6015" y1="13.3598" x2="85.7287" y2="78.6235" gradientUnits="userSpaceOnUse">
<stop stop-color="#A8FE75"/>
<stop offset="0.765625" stop-color="#19A6A5"/>
</linearGradient>
<linearGradient id="paint1_linear_4_63" x1="16.6015" y1="13.3598" x2="85.7287" y2="78.6235" gradientUnits="userSpaceOnUse">
<stop stop-color="#024383"/>
<stop offset="0.765625" stop-color="#0967C4"/>
</linearGradient>
<linearGradient id="paint2_linear_4_63" x1="16.5181" y1="11.5652" x2="67.0681" y2="74.5299" gradientUnits="userSpaceOnUse">
<stop stop-color="#024383"/>
<stop offset="0.765625" stop-color="#0967C4"/>
</linearGradient>
<linearGradient id="paint3_linear_4_63" x1="52.3108" y1="31.1151" x2="87.374" y2="64.459" gradientUnits="userSpaceOnUse">
<stop stop-color="#024383"/>
<stop offset="0.765625" stop-color="#0967C4"/>
</linearGradient>
</defs>
</svg>
