<svg width="100" height="100" viewBox="0 0 100 100" fill="none" xmlns="http://www.w3.org/2000/svg">
<path d="M85.4167 10.4167H14.5833L20.8333 81.25L50 89.5834L79.1667 81.25L85.4167 10.4167Z" fill="url(#paint0_linear_4_53)"/>
<path d="M50 16.6667V83.125L73.3333 76.4583L78.5417 16.6667H50Z" fill="url(#paint1_linear_4_53)"/>
<path d="M50 52.0833V43.75H67.9167L66.4583 67.7083L50 73.125V64.375L58.5417 61.4583L59.1667 52.0833H50ZM68.5417 35.4166L69.1667 27.0833H50V35.4166H68.5417Z" fill="white"/>
<path d="M50 64.375V73.125L33.5417 67.7083L32.7083 56.25H41.0417L41.4583 61.4583L50 64.375ZM39.7917 35.4166H50V27.0833H31.0417L32.5 52.0833H50V43.75H40.4167L39.7917 35.4166Z" fill="#EEEEEE"/>
<defs>
<linearGradient id="paint0_linear_4_53" x1="20.1172" y1="16.849" x2="82.6176" y2="75.2018" gradientUnits="userSpaceOnUse">
<stop stop-color="#0967C4"/>
<stop offset="0.822917" stop-color="#024383"/>
</linearGradient>
<linearGradient id="paint1_linear_4_53" x1="52.2298" y1="22.0664" x2="91.483" y2="39.6573" gradientUnits="userSpaceOnUse">
<stop stop-color="#024383"/>
<stop offset="0.765625" stop-color="#0967C4"/>
</linearGradient>
</defs>
</svg>
