<svg width="100" height="100" viewBox="0 0 100 100" fill="none" xmlns="http://www.w3.org/2000/svg">
<path d="M87.5 12.5H12.5V87.5H87.5V12.5Z" fill="url(#paint0_linear_4_73)"/>
<path d="M57.2708 45.8333H29.6396V52.6333H39.55V83.3333H47.4021V52.6333H57.2708V45.8333Z" fill="white"/>
<path d="M81.6542 54.3416C81.6542 54.3416 77.9313 51.8583 73.7229 51.8583C69.5146 51.8583 68 53.8583 68 55.9958C68 61.5125 83.3771 60.9604 83.3771 72.0625C83.3771 89.1646 59.9313 81.5791 59.9313 81.5791V73.375C59.9313 73.375 64.4146 76.7541 69.7917 76.7541C75.1688 76.7541 74.9646 73.2375 74.9646 72.7541C74.9646 67.6521 59.725 67.6521 59.725 56.3416C59.725 40.9646 81.9292 47.0312 81.9292 47.0312L81.6542 54.3416Z" fill="white"/>
<defs>
<linearGradient id="paint0_linear_4_73" x1="18.3594" y1="18.5938" x2="77.6562" y2="80.4688" gradientUnits="userSpaceOnUse">
<stop stop-color="#024383"/>
<stop offset="0.765625" stop-color="#0967C4"/>
</linearGradient>
</defs>
</svg>
