<svg width="60" height="58" viewBox="0 0 60 58" fill="none" xmlns="http://www.w3.org/2000/svg">
<path d="M30 0.5C13.458 0.5 1.95973e-05 12.612 1.95973e-05 27.5C1.95973e-05 32.705 1.64702 37.746 4.76802 42.104C4.17702 48.641 2.59302 53.494 0.29302 55.793C-0.0109804 56.097 -0.0869804 56.562 0.10502 56.946C0.27602 57.289 0.62502 57.5 1.00002 57.5C1.04602 57.5 1.09302 57.497 1.14002 57.49C1.54502 57.433 10.953 56.078 17.757 52.152C21.622 53.711 25.738 54.5 30 54.5C46.542 54.5 60 42.388 60 27.5C60 12.612 46.542 0.5 30 0.5Z" fill="url(#paint0_linear_7_107)"/>
<defs>
<linearGradient id="paint0_linear_7_107" x1="4.68744" y1="5.13125" x2="49.596" y2="54.4587" gradientUnits="userSpaceOnUse">
<stop stop-color="#024383"/>
<stop offset="0.765625" stop-color="#0967C4"/>
</linearGradient>
</defs>
</svg>
