<svg width="60" height="60" viewBox="0 0 60 60" fill="none" xmlns="http://www.w3.org/2000/svg">
<path d="M30 0C13.435 0 0 13.4325 0 30C0 43.255 8.595 54.5 20.5175 58.4675C22.015 58.745 22.5 57.815 22.5 57.025V51.44C14.155 53.255 12.4175 47.9 12.4175 47.9C11.0525 44.4325 9.085 43.51 9.085 43.51C6.3625 41.6475 9.2925 41.6875 9.2925 41.6875C12.305 41.8975 13.89 44.78 13.89 44.78C16.565 49.365 20.9075 48.04 22.62 47.2725C22.8875 45.335 23.665 44.01 24.525 43.2625C17.8625 42.5 10.8575 39.9275 10.8575 28.435C10.8575 25.1575 12.03 22.4825 13.9475 20.3825C13.6375 19.625 12.61 16.5725 14.24 12.4425C14.24 12.4425 16.76 11.6375 22.4925 15.5175C24.885 14.8525 27.45 14.52 30 14.5075C32.55 14.52 35.1175 14.8525 37.515 15.5175C43.2425 11.6375 45.7575 12.4425 45.7575 12.4425C47.39 16.575 46.3625 19.6275 46.0525 20.3825C47.9775 22.4825 49.14 25.16 49.14 28.435C49.14 39.9575 42.1225 42.495 35.4425 43.2375C36.5175 44.1675 37.5 45.9925 37.5 48.7925V57.025C37.5 57.8225 37.98 58.76 39.5025 58.465C51.415 54.4925 60 43.25 60 30C60 13.4325 46.5675 0 30 0Z" fill="url(#paint0_linear_7_99)"/>
<defs>
<linearGradient id="paint0_linear_7_99" x1="4.6875" y1="4.7548" x2="50.8919" y2="54.1869" gradientUnits="userSpaceOnUse">
<stop stop-color="#024383"/>
<stop offset="0.765625" stop-color="#0967C4"/>
</linearGradient>
</defs>
</svg>
