<svg width="60" height="60" viewBox="0 0 60 60" fill="none" xmlns="http://www.w3.org/2000/svg">
<path d="M6.60001 8.40002C3.63751 8.40002 1.21408 10.8188 1.20001 13.7813C1.20001 13.7813 1.20001 13.786 1.20001 13.7907C1.20001 13.7953 1.20001 13.7953 1.20001 13.8V46.2C1.20001 49.1672 3.63282 51.6 6.60001 51.6H53.4C56.3672 51.6 58.8 49.1672 58.8 46.2V13.8C58.8 13.7953 58.8 13.7953 58.8 13.7907C58.8 13.786 58.8 13.7813 58.8 13.7813C58.7859 10.8188 56.3625 8.40002 53.4 8.40002H6.60001ZM9.72189 10.8H50.2828L30 24.9375L9.72189 10.8ZM5.72814 10.9407L30 27.8625L54.2766 10.9407C55.5047 11.311 56.3906 12.4266 56.4 13.786C56.3953 14.0391 56.1375 14.5453 55.7625 14.9532C55.3828 15.3657 55.0125 15.6235 55.0125 15.6235L55.0078 15.6328L30 33.3328L4.9922 15.6328L4.98751 15.6235C4.98751 15.6235 4.6172 15.3657 4.23751 14.9532C3.86251 14.5453 3.6047 14.0391 3.60001 13.786C3.60939 12.4266 4.49532 11.311 5.72814 10.9407ZM3.60001 17.5828L3.60939 17.5922L3.61876 17.5969V17.6016L7.20001 20.1328V49.2H6.60001C4.93126 49.2 3.60001 47.8688 3.60001 46.2V17.5828ZM56.4 17.5828V46.2C56.4 47.8688 55.0688 49.2 53.4 49.2H52.8V20.1328L56.3813 17.6016V17.5969L56.4 17.5828ZM9.60001 21.8297L30 36.2672L50.4 21.8297V49.2H9.60001V21.8297Z" fill="url(#paint0_linear_7_101)"/>
<defs>
<linearGradient id="paint0_linear_7_101" x1="5.70001" y1="11.91" x2="38.1029" y2="56.9923" gradientUnits="userSpaceOnUse">
<stop stop-color="#024383"/>
<stop offset="0.765625" stop-color="#0967C4"/>
</linearGradient>
</defs>
</svg>
