<svg width="55" height="58" viewBox="0 0 55 58" fill="none" xmlns="http://www.w3.org/2000/svg">
<path d="M48.1486 0.439941H7.11544C3.57633 0.439941 0.70401 3.48634 0.70401 7.23994V50.7599C0.70401 54.5136 3.57633 57.56 7.11544 57.56H48.1486C51.6877 57.56 54.56 54.5136 54.56 50.7599V7.23994C54.56 3.48634 51.6877 0.439941 48.1486 0.439941ZM17.3737 22.1999V48.0399H9.68001V22.1999H17.3737ZM9.68001 14.6791C9.68001 12.7751 11.2188 11.3199 13.5269 11.3199C15.835 11.3199 17.284 12.7751 17.3737 14.6791C17.3737 16.5831 15.9376 18.1199 13.5269 18.1199C11.2188 18.1199 9.68001 16.5831 9.68001 14.6791ZM45.584 48.0399H37.8903C37.8903 48.0399 37.8903 35.4463 37.8903 34.4399C37.8903 31.7199 36.608 28.9999 33.4023 28.9455H33.2997C30.1966 28.9455 28.9143 31.7471 28.9143 34.4399C28.9143 35.6775 28.9143 48.0399 28.9143 48.0399H21.2206V22.1999H28.9143V25.6815C28.9143 25.6815 31.3891 22.1999 36.3644 22.1999C41.455 22.1999 45.584 25.9127 45.584 33.4335V48.0399Z" fill="url(#paint0_linear_4_87)"/>
<defs>
<linearGradient id="paint0_linear_4_87" x1="4.91151" y1="5.08094" x2="50.1069" y2="49.5465" gradientUnits="userSpaceOnUse">
<stop stop-color="#024383"/>
<stop offset="0.765625" stop-color="#0967C4"/>
</linearGradient>
</defs>
</svg>
